# xmcd
#
# Track frame offsets: 
#        150
#        18702
#        38086
#        61895
#        86731
#        103702
#        121738
#        146612
#        169748
#        194757
#
# Disc length: 3014 seconds
#
# Revision: 0
# Processed by: cddbd v1.5.2PL0 Copyright (c) Steve Scherf et al.
# Submitted via: ExactAudioCopyFreeDBPlugin 1.0
#
DISCID=890bc40a
DTITLE=Wumpscut - Bulwark Bazooka
DYEAR=2014
DGENRE=Gothic
TTITLE0=Rubber Corpse
TTITLE1=Furunkel Lolita
TTITLE2=Cross Of Iron
TTITLE3=Atrocity Dancer
TTITLE4=Heresy
TTITLE5=Supergurl
TTITLE6=Vienna
TTITLE7=Pagan Crusade
TTITLE8=Flesh Trench
TTITLE9=RTL Hariti
EXTD=
EXTT0=
EXTT1=
EXTT2=
EXTT3=
EXTT4=
EXTT5=
EXTT6=
EXTT7=
EXTT8=
EXTT9=
PLAYORDER=
